<?xml version="1.0" encoding="utf-8"?>
<svg xmlns="http://www.w3.org/2000/svg" style="margin: auto; background: none; display: block; shape-rendering: auto;" width="277" height="84" preserveAspectRatio="xMidYMid">
<style type="text/css">
  text {
    text-anchor: middle; font-size: 65px; opacity: 0;
  }
</style>
<g style="transform-origin: 138.5px 42px; transform: scale(1.54762);">
<g transform="translate(138.5,42)">
  <g transform="translate(0,0)"><g class="path" style="transform: matrix(0.01, 0, 0, 0.01, 0, 0); transform-origin: -51.225px -0.388105px; animation: 1s linear 0s 1 normal forwards running bounce-in-59025b29-ab78-428f-b19d-b006a6f1ea44;"><path d="M15.92-14.66L15.92-14.66L15.92-14.66Q15.96-14.74 15.96-14.91L15.96-14.91L15.96-14.91Q15.96-15.04 15.83-15.04L15.83-15.04L15.46-14.87L15.46-14.87Q11.51-9.95 11.17-9.53L11.17-9.53L11.17-9.53Q8.48-6.30 6.01-3.63L6.01-3.63L6.01-3.63Q3.53-0.97 2.39 0.08L2.39 0.08L1.26 1.18L1.26 1.18Q0.76 1.51 0.46 1.51L0.46 1.51L0.46 1.51Q0.04 1.51 0.04 0.71L0.04 0.71L0.04 0.71Q0.34-2.86 2.18-9.95L2.18-9.95L2.18-9.95Q3.53-14.95 5.33-19.85L5.33-19.85L5.33-19.85Q7.14-24.74 8.32-27.13L8.32-27.13L9.45-29.57L9.45-29.57Q10.08-30.79 10.98-31.48L10.98-31.48L10.98-31.48Q11.89-32.17 12.43-32.26L12.43-32.26L13.02-32.34L13.02-32.34Q13.48-32.34 13.48-31.96L13.48-31.96L13.48-31.96Q13.48-31.75 13.31-31.33L13.31-31.33L13.31-31.33Q11.42-27.22 8.32-17.62L8.32-17.62L8.32-17.62Q5.21-8.02 5.21-5.63L5.21-5.63L5.21-5.63Q5.21-5.04 5.50-5.04L5.50-5.04L5.50-5.04Q5.71-5.04 6.09-5.42L6.09-5.42L6.09-5.42Q11.05-10.92 15.83-17.35L15.83-17.35L15.83-17.35Q16.46-18.19 17.09-19.32L17.09-19.32L17.09-19.32Q17.72-20.45 18.06-21.17L18.06-21.17L18.40-21.88L18.40-21.88Q19.19-23.98 20.03-25.91L20.03-25.91L20.03-25.91Q20.87-27.85 21.29-28.73L21.29-28.73L21.71-29.57L21.71-29.57Q22.34-30.79 23.23-31.48L23.23-31.48L23.23-31.48Q24.11-32.17 24.70-32.26L24.70-32.26L25.28-32.34L25.28-32.34Q25.70-32.34 25.70-31.96L25.70-31.96L25.62-31.58L25.62-31.58Q24.91-29.90 23.81-27.09L23.81-27.09L23.81-27.09Q22.72-24.28 20.52-17.39L20.52-17.39L20.52-17.39Q18.31-10.50 17.47-5.71L17.47-5.71L17.47-5.71Q17.51-5.08 17.85-5.08L17.85-5.08L17.85-5.08Q18.10-5.08 18.44-5.46L18.44-5.46L18.44-5.46Q21.17-8.19 26.29-14.74L26.29-14.74L26.29-14.74Q29.53-18.94 32.30-23.69L32.30-23.69L32.30-23.69Q35.07-28.43 35.07-30.11L35.07-30.11L35.07-30.11Q35.07-31.08 36.37-31.71L36.37-31.71L36.37-31.71Q37.63-32.34 39.14-32.34L39.14-32.34L39.14-32.34Q40.19-32.34 40.19-31.58L40.19-31.58L40.19-31.58Q40.19-30.62 39.16-28.83L39.16-28.83L39.16-28.83Q38.14-27.05 35.99-24.32L35.99-24.32L35.99-24.32Q33.85-21.59 32.07-19.45L32.07-19.45L32.07-19.45Q30.28-17.30 27.26-13.76L27.26-13.76L27.26-13.76Q24.23-10.21 22.97-8.69L22.97-8.69L22.97-8.69Q20.29-5.46 17.91-3.00L17.91-3.00L17.91-3.00Q15.54-0.55 14.53 0.34L14.53 0.34L13.48 1.18L13.48 1.18Q13.02 1.51 12.73 1.51L12.73 1.51L12.73 1.51Q12.26 1.51 12.26 0.71L12.26 0.71L12.26 0.71Q12.73-4.58 15.92-14.66" fill="#6a0d6b" stroke="none" stroke-width="none" transform="translate(-71.33999633789062,15.026895073784713)" style="fill: rgb(106, 13, 107);"></path></g><g class="path" style="transform: matrix(0.01, 0, 0, 0.01, 0, 0); transform-origin: -38.285px 6.2669px; animation: 1s linear 0.0733333s 1 normal forwards running bounce-in-59025b29-ab78-428f-b19d-b006a6f1ea44;"><path d="M36.41-14.24L36.41-14.24L36.41-14.24Q36.92-15.29 36.92-16.09L36.92-16.09L36.92-16.09Q36.92-16.76 36.50-16.76L36.50-16.76L36.50-16.76Q36.25-16.76 35.93-16.61L35.93-16.61L35.93-16.61Q35.62-16.46 35.45-16.30L35.45-16.30L35.24-16.13L35.24-16.13Q33.94-14.99 31.98-11.99L31.98-11.99L31.98-11.99Q30.03-8.99 30.03-8.15L30.03-8.15L30.03-8.15Q30.03-7.98 30.11-7.98L30.11-7.98L30.11-7.98Q30.37-7.98 31.23-8.40L31.23-8.40L31.23-8.40Q32.09-8.82 33.70-10.37L33.70-10.37L33.70-10.37Q35.32-11.93 36.41-14.24zM34.52-4.62L34.52-4.62L34.52-4.62Q36.75-6.68 40.91-11.42L40.91-11.42L40.91-11.42Q41.03-11.55 41.12-11.55L41.12-11.55L41.12-11.55Q41.20-11.55 41.20-11.38L41.20-11.38L41.20-11.38Q41.20-10.58 40.57-9.83L40.57-9.83L40.57-9.83Q37.46-6.38 35.07-4.07L35.07-4.07L35.07-4.07Q33.31-2.31 30.87-0.69L30.87-0.69L30.87-0.69Q28.43 0.92 26.84 0.92L26.84 0.92L26.84 0.92Q24.91 0.92 24.91-1.76L24.91-1.76L24.91-1.76Q24.91-6.22 28.20-11.09L28.20-11.09L28.20-11.09Q31.50-15.96 35.83-17.68L35.83-17.68L35.83-17.68Q37.63-18.44 39.10-18.44L39.10-18.44L39.10-18.44Q40.74-18.44 40.74-17.14L40.74-17.14L40.74-17.14Q40.74-14.70 37.30-11.55L37.30-11.55L37.30-11.55Q33.85-8.40 29.57-6.76L29.57-6.76L29.57-6.76Q29.40-6.72 29.27-6.47L29.27-6.47L29.27-6.47Q28.64-4.75 28.64-3.40L28.64-3.40L28.64-3.40Q28.64-1.89 29.78-1.89L29.78-1.89L29.78-1.89Q31.58-1.89 34.52-4.62" fill="#6a0d6b" stroke="none" stroke-width="none" transform="translate(-71.33999633789062,15.026895073784713)" style="fill: rgb(106, 13, 107);"></path></g><g class="path" style="transform: matrix(0.01, 0, 0, 0.01, 0, 0); transform-origin: -21.405px -3.8531px; animation: 1s linear 0.146667s 1 normal forwards running bounce-in-59025b29-ab78-428f-b19d-b006a6f1ea44;"><path d="M49.14-20.45L49.14-20.45L49.14-20.45Q52.12-22.55 54.50-25.22L54.50-25.22L54.50-25.22Q56.87-27.89 58.11-30.14L58.11-30.14L58.11-30.14Q59.35-32.38 59.98-34.02L59.98-34.02L59.98-34.02Q60.61-35.66 60.61-36.37L60.61-36.37L60.61-36.37Q60.61-36.79 60.31-36.79L60.31-36.79L60.31-36.79Q59.72-36.79 58.88-35.95L58.88-35.95L58.88-35.95Q57.29-34.36 55.27-31.33L55.27-31.33L55.27-31.33Q53.26-28.31 52.02-26.15L52.02-26.15L52.02-26.15Q50.78-23.98 48.80-20.37L48.80-20.37L48.80-20.37Q48.97-20.37 49.14-20.45zM44.65-6.34L44.65-6.34L44.65-6.34Q46.41-8.11 49.31-11.42L49.31-11.42L49.31-11.42Q49.43-11.55 49.52-11.55L49.52-11.55L49.52-11.55Q49.60-11.55 49.60-11.38L49.60-11.38L49.60-11.38Q49.60-10.58 48.97-9.83L48.97-9.83L48.97-9.83Q45.86-6.38 43.47-4.07L43.47-4.07L43.47-4.07Q38.22 0.88 36.79 0.88L36.79 0.88L36.79 0.88Q36.16 0.88 36.16 0L36.16 0L36.16 0Q36.16-0.46 36.27-1.01L36.27-1.01L36.27-1.01Q36.37-1.55 36.62-2.21L36.62-2.21L36.62-2.21Q36.88-2.86 37.06-3.30L37.06-3.30L37.06-3.30Q37.25-3.74 37.61-4.56L37.61-4.56L37.61-4.56Q37.97-5.38 38.09-5.67L38.09-5.67L38.09-5.67Q39.27-8.32 45.32-19.61L45.32-19.61L45.32-19.61Q53.59-34.69 60.52-38.14L60.52-38.14L60.52-38.14Q61.53-38.64 62.54-38.64L62.54-38.64L62.54-38.64Q63.71-38.64 63.71-37.55L63.71-37.55L63.71-37.55Q63.71-35.03 61.99-32.02L61.99-32.02L61.99-32.02Q60.27-29.02 57.79-26.50L57.79-26.50L57.79-26.50Q55.31-23.98 52.94-22.09L52.94-22.09L52.94-22.09Q50.57-20.20 48.85-19.24L48.85-19.24L48.85-19.24Q48.59-19.15 48.38-18.86L48.38-18.86L48.38-18.86Q46.54-15.88 44.77-12.45L44.77-12.45L44.77-12.45Q43.01-9.03 42.13-7.06L42.13-7.06L41.29-5.12L41.29-5.12Q41.08-4.49 41.08-4.28L41.08-4.28L41.08-4.28Q41.08-3.91 41.37-3.91L41.37-3.91L41.37-3.91Q42.21-3.91 44.65-6.34" fill="#6a0d6b" stroke="none" stroke-width="none" transform="translate(-71.33999633789062,15.026895073784713)" style="fill: rgb(106, 13, 107);"></path></g><g class="path" style="transform: matrix(0.01, 0, 0, 0.01, 0, 0); transform-origin: -17.81px 6.2669px; animation: 1s linear 0.22s 1 normal forwards running bounce-in-59025b29-ab78-428f-b19d-b006a6f1ea44;"><path d="M55.57-4.07L55.57-4.07L55.57-4.07Q53.68-2.27 51.30-0.69L51.30-0.69L51.30-0.69Q48.93 0.88 47.29 0.88L47.29 0.88L47.29 0.88Q45.36 0.88 45.36-2.10L45.36-2.10L45.36-2.10Q45.36-5.25 47.59-9.09L47.59-9.09L47.59-9.09Q49.81-12.94 53.23-15.67L53.23-15.67L53.23-15.67Q56.66-18.40 59.72-18.40L59.72-18.40L59.72-18.40Q61.36-18.40 61.36-17.18L61.36-17.18L61.36-17.18Q61.36-15.08 58.63-12.43L58.63-12.43L58.63-12.43Q58.38-12.18 57.54-11.55L57.54-11.55L57.54-11.55Q56.70-10.92 56.36-10.92L56.36-10.92L56.36-10.92Q56.15-10.92 56.15-11.13L56.15-11.13L56.28-11.51L56.28-11.51Q57.96-14.49 57.96-16.04L57.96-16.04L57.96-16.04Q57.96-16.88 57.41-16.88L57.41-16.88L57.41-16.88Q56.11-16.88 54.12-14.34L54.12-14.34L54.12-14.34Q52.12-11.80 50.65-8.55L50.65-8.55L50.65-8.55Q49.18-5.29 49.18-3.40L49.18-3.40L49.18-3.40Q49.18-1.89 50.27-1.89L50.27-1.89L50.27-1.89Q52.16-1.89 55.02-4.62L55.02-4.62L55.02-4.62Q57.25-6.68 61.40-11.42L61.40-11.42L61.40-11.42Q61.53-11.55 61.61-11.55L61.61-11.55L61.61-11.55Q61.70-11.55 61.70-11.38L61.70-11.38L61.70-11.38Q61.70-10.58 61.07-9.83L61.07-9.83L61.07-9.83Q57.96-6.38 55.57-4.07" fill="#6a0d6b" stroke="none" stroke-width="none" transform="translate(-71.33999633789062,15.026895073784713)" style="fill: rgb(106, 13, 107);"></path></g><g class="path" style="transform: matrix(0.01, 0, 0, 0.01, 0, 0); transform-origin: -4.455px 5.9969px; animation: 1s linear 0.293333s 1 normal forwards running bounce-in-59025b29-ab78-428f-b19d-b006a6f1ea44;"><path d="M75.77-14.78L75.77-14.78L75.77-14.78Q76.15-14.70 76.15-14.53L76.15-14.53L76.15-14.53Q76.15-14.28 75.81-13.94L75.81-13.94L75.81-13.94Q75.35-13.48 74.45-12.73L74.45-12.73L74.45-12.73Q73.54-11.97 73.37-11.80L73.37-11.80L72.79-11.00L72.79-11.00Q71.90-8.53 70.08-5.86L70.08-5.86L70.08-5.86Q68.25-3.19 65.63-1.18L65.63-1.18L65.63-1.18Q63 0.84 60.61 0.84L60.61 0.84L60.61 0.84Q57.62 0.84 57.62-2.81L57.62-2.81L57.62-2.81Q57.62-6.05 59.72-9.81L59.72-9.81L59.72-9.81Q61.82-13.57 65.16-16.23L65.16-16.23L65.16-16.23Q68.50-18.90 71.74-18.90L71.74-18.90L71.74-18.90Q74.09-18.90 74.09-17.05L74.09-17.05L74.09-17.05Q74.09-16.04 73.08-14.32L73.08-14.32L73.08-14.32Q73.04-14.28 73.04-14.20L73.04-14.20L73.04-14.20Q73.04-14.11 73.12-14.11L73.12-14.11L73.12-14.11Q74.68-14.74 75.77-14.78zM71.78-13.78L71.78-13.78L71.78-13.78Q72.11-15.25 72.11-16.04L72.11-16.04L72.11-16.04Q72.11-17.81 70.94-17.81L70.94-17.81L70.94-17.81Q69.30-17.81 66.86-14.78L66.86-14.78L66.86-14.78Q64.43-11.76 62.69-7.98L62.69-7.98L62.69-7.98Q60.94-4.20 60.94-2.02L60.94-2.02L60.94-2.02Q60.94-0.42 62.08-0.42L62.08-0.42L62.08-0.42Q63.84-0.42 66.30-3.95L66.30-3.95L66.30-3.95Q68.75-7.48 69.26-11.05L69.26-11.05L69.26-11.05Q69.22-11.13 69.22-11.30L69.22-11.30L69.22-11.30Q69.22-12.52 71.40-13.48L71.40-13.48L71.40-13.48Q71.74-13.61 71.78-13.78" fill="#6a0d6b" stroke="none" stroke-width="none" transform="translate(-71.33999633789062,15.026895073784713)" style="fill: rgb(106, 13, 107);"></path></g><g class="path" style="transform: matrix(0.01, 0, 0, 0.01, 0, 0); transform-origin: 13.96px 6.12689px; animation: 1s linear 0.366667s 1 normal forwards running bounce-in-59025b29-ab78-428f-b19d-b006a6f1ea44;"><path d="M95.72-6.34L95.72-6.34L95.72-6.34Q97.48-8.11 100.38-11.42L100.38-11.42L100.38-11.42Q100.51-11.55 100.59-11.55L100.59-11.55L100.59-11.55Q100.67-11.55 100.67-11.38L100.67-11.38L100.67-11.38Q100.67-10.58 100.04-9.83L100.04-9.83L100.04-9.83Q96.94-6.38 94.54-4.07L94.54-4.07L94.54-4.07Q89.59 0.55 88.03 0.55L88.03 0.55L88.03 0.55Q87.36 0.55 87.36-0.25L87.36-0.25L87.36-0.25Q87.36-1.05 88.22-2.90L88.22-2.90L88.22-2.90Q89.08-4.75 89.94-6.26L89.94-6.26L89.94-6.26Q90.80-7.77 92.13-9.95L92.13-9.95L92.13-9.95Q93.45-12.14 93.53-12.31L93.53-12.31L93.53-12.31Q94.29-13.52 94.29-13.86L94.29-13.86L94.29-13.86Q94.29-14.07 94.08-14.07L94.08-14.07L93.49-13.86L93.49-13.86Q91.56-12.47 88.87-9.55L88.87-9.55L88.87-9.55Q86.18-6.64 84.46-4.45L84.46-4.45L82.74-2.23L82.74-2.23Q80.81 0.55 78.96 0.55L78.96 0.55L78.96 0.55Q78.41 0.55 78.41 0.21L78.41 0.21L78.41 0.21Q78.41-0.17 79.21-1.79L79.21-1.79L79.21-1.79Q80.01-3.40 80.81-4.83L80.81-4.83L81.61-6.26L81.61-6.26Q81.90-6.85 83.06-8.80L83.06-8.80L83.06-8.80Q84.21-10.75 84.99-12.16L84.99-12.16L84.99-12.16Q85.76-13.57 85.76-13.90L85.76-13.90L85.76-13.90Q85.76-14.11 85.60-14.11L85.60-14.11L85.01-13.86L85.01-13.86Q83.03-12.47 80.35-9.55L80.35-9.55L80.35-9.55Q77.66-6.64 75.98-4.45L75.98-4.45L74.26-2.23L74.26-2.23Q72.28 0.50 70.48 0.50L70.48 0.50L70.48 0.50Q69.93 0.50 69.93 0.21L69.93 0.21L69.93 0.21Q69.93-0.17 70.73-1.79L70.73-1.79L70.73-1.79Q71.53-3.40 72.32-4.83L72.32-4.83L73.12-6.26L77.20-13.48L77.20-13.48Q78.20-15.37 79.63-16.86L79.63-16.86L79.63-16.86Q81.06-18.35 82.61-18.35L82.61-18.35L82.61-18.35Q82.95-18.35 82.95-18.06L82.95-18.06L82.95-18.06Q82.95-17.81 82.47-16.99L82.47-16.99L82.47-16.99Q81.98-16.17 81.08-14.72L81.08-14.72L81.08-14.72Q80.18-13.27 79.55-12.05L79.55-12.05L79.55-12.05Q79.17-11.34 78.64-10.44L78.64-10.44L78.64-10.44Q78.12-9.53 77.78-8.93L77.78-8.93L77.78-8.93Q77.45-8.32 77.32-8.06L77.32-8.06L77.32-8.06Q77.20-7.81 77.20-7.69L77.20-7.69L77.20-7.69Q77.20-7.60 77.28-7.60L77.28-7.60L77.28-7.60Q77.41-7.60 77.70-7.90L77.70-7.90L77.70-7.90Q78.50-8.82 79.78-10.21L79.78-10.21L79.78-10.21Q81.06-11.59 84.13-14.39L84.13-14.39L84.13-14.39Q87.19-17.18 89.17-18.14L89.17-18.14L89.17-18.14Q89.59-18.35 90.01-18.35L90.01-18.35L90.01-18.35Q90.59-18.35 90.59-17.77L90.59-17.77L90.59-17.77Q90.59-16.67 88.12-12.10L88.12-12.10L88.12-12.10Q87.91-11.72 87.25-10.63L87.25-10.63L87.25-10.63Q86.60-9.53 86.16-8.74L86.16-8.74L86.16-8.74Q85.72-7.94 85.72-7.73L85.72-7.73L85.72-7.73Q85.72-7.60 85.81-7.60L85.81-7.60L85.81-7.60Q85.93-7.60 86.23-7.90L86.23-7.90L86.23-7.90Q87.02-8.82 88.31-10.21L88.31-10.21L88.31-10.21Q89.59-11.59 92.63-14.39L92.63-14.39L92.63-14.39Q95.68-17.18 97.65-18.14L97.65-18.14L97.65-18.14Q98.15-18.35 98.53-18.35L98.53-18.35L98.53-18.35Q99.16-18.35 99.16-17.77L99.16-17.77L99.16-17.77Q99.16-17.60 98.99-17.03L98.99-17.03L98.99-17.03Q98.83-16.46 98.03-14.72L98.03-14.72L98.03-14.72Q97.23-12.98 95.93-10.88L95.93-10.88L95.93-10.88Q92.74-5.96 92.74-4.70L92.74-4.70L92.74-4.70Q92.74-4.33 92.99-4.33L92.99-4.33L92.99-4.33Q93.70-4.33 95.72-6.34" fill="#6a0d6b" stroke="none" stroke-width="none" transform="translate(-71.33999633789062,15.026895073784713)" style="fill: rgb(106, 13, 107);"></path></g><g class="path" style="transform: matrix(0.01, 0, 0, 0.01, 0, 0); transform-origin: 33.24px 6.2669px; animation: 1s linear 0.44s 1 normal forwards running bounce-in-59025b29-ab78-428f-b19d-b006a6f1ea44;"><path d="M107.94-14.24L107.94-14.24L107.94-14.24Q108.44-15.29 108.44-16.09L108.44-16.09L108.44-16.09Q108.44-16.76 108.02-16.76L108.02-16.76L108.02-16.76Q107.77-16.76 107.46-16.61L107.46-16.61L107.46-16.61Q107.14-16.46 106.97-16.30L106.97-16.30L106.76-16.13L106.76-16.13Q105.46-14.99 103.51-11.99L103.51-11.99L103.51-11.99Q101.56-8.99 101.56-8.15L101.56-8.15L101.56-8.15Q101.56-7.98 101.64-7.98L101.64-7.98L101.64-7.98Q101.89-7.98 102.75-8.40L102.75-8.40L102.75-8.40Q103.61-8.82 105.23-10.37L105.23-10.37L105.23-10.37Q106.85-11.93 107.94-14.24zM106.05-4.62L106.05-4.62L106.05-4.62Q108.28-6.68 112.43-11.42L112.43-11.42L112.43-11.42Q112.56-11.55 112.64-11.55L112.64-11.55L112.64-11.55Q112.73-11.55 112.73-11.38L112.73-11.38L112.73-11.38Q112.73-10.58 112.10-9.83L112.10-9.83L112.10-9.83Q108.99-6.38 106.60-4.07L106.60-4.07L106.60-4.07Q104.83-2.31 102.40-0.69L102.40-0.69L102.40-0.69Q99.96 0.92 98.36 0.92L98.36 0.92L98.36 0.92Q96.43 0.92 96.43-1.76L96.43-1.76L96.43-1.76Q96.43-6.22 99.73-11.09L99.73-11.09L99.73-11.09Q103.03-15.96 107.35-17.68L107.35-17.68L107.35-17.68Q109.16-18.44 110.63-18.44L110.63-18.44L110.63-18.44Q112.27-18.44 112.27-17.14L112.27-17.14L112.27-17.14Q112.27-14.70 108.82-11.55L108.82-11.55L108.82-11.55Q105.38-8.40 101.09-6.76L101.09-6.76L101.09-6.76Q100.93-6.72 100.80-6.47L100.80-6.47L100.80-6.47Q100.17-4.75 100.17-3.40L100.17-3.40L100.17-3.40Q100.17-1.89 101.30-1.89L101.30-1.89L101.30-1.89Q103.11-1.89 106.05-4.62" fill="#6a0d6b" stroke="none" stroke-width="none" transform="translate(-71.33999633789062,15.026895073784713)" style="fill: rgb(106, 13, 107);"></path></g><g class="path" style="transform: matrix(0.01, 0, 0, 0.01, 0, 0); transform-origin: 54.515px -2.1081px; animation: 1s linear 0.513333s 1 normal forwards running bounce-in-59025b29-ab78-428f-b19d-b006a6f1ea44;"><path d="M123.31-6.34L123.31-6.34L123.31-6.34Q125.08-8.11 127.97-11.42L127.97-11.42L127.97-11.42Q128.10-11.55 128.18-11.55L128.18-11.55L128.18-11.55Q128.27-11.55 128.27-11.38L128.27-11.38L128.27-11.38Q128.27-10.58 127.64-9.83L127.64-9.83L127.64-9.83Q124.53-6.38 122.14-4.07L122.14-4.07L122.14-4.07Q117.10 0.80 115.46 0.80L115.46 0.80L115.46 0.80Q114.87 0.80 114.87 0.04L114.87 0.04L114.87 0.04Q114.87-0.84 115.54-2.60L115.54-2.60L115.54-2.60Q116.21-4.37 116.89-5.71L116.89-5.71L117.56-7.01L117.56-7.01Q118.52-8.74 120.75-12.89L120.75-12.89L120.75-12.89Q122.98-17.05 125.06-20.75L125.06-20.75L125.06-20.75Q127.13-24.44 128.98-27.43L128.98-27.43L125.66-27.43L125.66-27.43Q125.24-27.43 125.24-27.64L125.24-27.64L125.24-27.64Q125.24-27.85 125.58-28.06L125.58-28.06L125.58-28.06Q125.92-28.27 126.29-28.27L126.29-28.27L126.29-28.27Q127.22-28.27 129.53-28.31L129.53-28.31L129.53-28.31Q131.59-31.54 133.06-33.43L133.06-33.43L133.06-33.43Q134.36-35.07 134.86-35.07L134.86-35.07L134.86-35.07Q135.16-35.07 135.16-34.69L135.16-34.69L135.16-34.69Q135.16-33.81 133.56-30.91L133.56-30.91L132.13-28.31L136.46-28.31L136.46-28.31Q136.84-28.31 136.84-28.10L136.84-28.10L136.84-28.10Q136.84-27.43 135.62-27.43L135.62-27.43L131.67-27.43L131.67-27.43Q121.97-9.03 121.46-8.15L121.46-8.15L121.46-8.15Q119.70-4.91 119.70-3.95L119.70-3.95L119.70-3.95Q119.70-3.65 119.91-3.65L119.91-3.65L119.91-3.65Q120.50-3.65 123.31-6.34" fill="#6a0d6b" stroke="none" stroke-width="none" transform="translate(-71.33999633789062,15.026895073784713)" style="fill: rgb(106, 13, 107);"></path></g><g class="path" style="transform: matrix(0.01, 0, 0, 0.01, 0, 0); transform-origin: 62.115px 5.9969px; animation: 1s linear 0.586667s 1 normal forwards running bounce-in-59025b29-ab78-428f-b19d-b006a6f1ea44;"><path d="M142.34-14.78L142.34-14.78L142.34-14.78Q142.72-14.70 142.72-14.53L142.72-14.53L142.72-14.53Q142.72-14.28 142.38-13.94L142.38-13.94L142.38-13.94Q141.92-13.48 141.02-12.73L141.02-12.73L141.02-12.73Q140.11-11.97 139.94-11.80L139.94-11.80L139.36-11.00L139.36-11.00Q138.47-8.53 136.65-5.86L136.65-5.86L136.65-5.86Q134.82-3.19 132.20-1.18L132.20-1.18L132.20-1.18Q129.57 0.84 127.18 0.84L127.18 0.84L127.18 0.84Q124.19 0.84 124.19-2.81L124.19-2.81L124.19-2.81Q124.19-6.05 126.29-9.81L126.29-9.81L126.29-9.81Q128.39-13.57 131.73-16.23L131.73-16.23L131.73-16.23Q135.07-18.90 138.31-18.90L138.31-18.90L138.31-18.90Q140.66-18.90 140.66-17.05L140.66-17.05L140.66-17.05Q140.66-16.04 139.65-14.32L139.65-14.32L139.65-14.32Q139.61-14.28 139.61-14.20L139.61-14.20L139.61-14.20Q139.61-14.11 139.69-14.11L139.69-14.11L139.69-14.11Q141.25-14.74 142.34-14.78zM138.35-13.78L138.35-13.78L138.35-13.78Q138.68-15.25 138.68-16.04L138.68-16.04L138.68-16.04Q138.68-17.81 137.51-17.81L137.51-17.81L137.51-17.81Q135.87-17.81 133.43-14.78L133.43-14.78L133.43-14.78Q131.00-11.76 129.25-7.98L129.25-7.98L129.25-7.98Q127.51-4.20 127.51-2.02L127.51-2.02L127.51-2.02Q127.51-0.42 128.65-0.42L128.65-0.42L128.65-0.42Q130.41-0.42 132.87-3.95L132.87-3.95L132.87-3.95Q135.32-7.48 135.83-11.05L135.83-11.05L135.83-11.05Q135.79-11.13 135.79-11.30L135.79-11.30L135.79-11.30Q135.79-12.52 137.97-13.48L137.97-13.48L137.97-13.48Q138.31-13.61 138.35-13.78" fill="#6a0d6b" stroke="none" stroke-width="none" transform="translate(-71.33999633789062,15.026895073784713)" style="fill: rgb(106, 13, 107);"></path></g></g>
</g>
</g>
<style id="bounce-in-59025b29-ab78-428f-b19d-b006a6f1ea44" data-anikit="">@keyframes bounce-in-59025b29-ab78-428f-b19d-b006a6f1ea44
{
  0% {
    animation-timing-function: cubic-bezier(0.0383,0.3388,0.0421,0.6652);
    transform: matrix(0.01,0,0,0.01,0,0);
    opacity: 1;
  }
  4.7% {
    animation-timing-function: cubic-bezier(0.3296,0.3336,0.5772,0.6672);
    transform: matrix(0.556,0,0,0.556,0,0);
    opacity: 1;
  }
  8.4% {
    animation-timing-function: cubic-bezier(0.0781,0.1617,0.0874,0.9301);
    transform: matrix(0.979,0,0,0.979,0,0);
    opacity: 1;
  }
  12.4% {
    animation-timing-function: cubic-bezier(0.8341,0.1496,0.8634,0.7673);
    transform: matrix(1.153,0,0,1.153,0,0);
    opacity: 1;
  }
  16.3% {
    animation-timing-function: cubic-bezier(0.3264,0.3332,0.5758,0.6695);
    transform: matrix(1.008,0,0,1.008,0,0);
    opacity: 1;
  }
  21.2% {
    animation-timing-function: cubic-bezier(0.0921,0.1883,0.3277,1);
    transform: matrix(0.704,0,0,0.704,0,0);
    opacity: 1;
  }
  24.5% {
    animation-timing-function: cubic-bezier(0.6905,0.0944,0.8759,0.7624);
    transform: matrix(0.626,0,0,0.626,0,0);
    opacity: 1;
  }
  27.7% {
    animation-timing-function: cubic-bezier(0.3688,0.332,0.624,0.6684);
    transform: matrix(0.704,0,0,0.704,0,0);
    opacity: 1;
  }
  32.6% {
    animation-timing-function: cubic-bezier(0.1368,0.2364,0.2451,0.9049);
    transform: matrix(0.958,0,0,0.958,0,0);
    opacity: 1;
  }
  37.4% {
    animation-timing-function: cubic-bezier(0.5936,0.0846,0.3495,1);
    transform: matrix(1.085,0,0,1.085,0,0);
    opacity: 1;
  }
  49.5% {
    animation-timing-function: cubic-bezier(0.5522,0.0981,0.3807,1);
    transform: matrix(0.802,0,0,0.802,0,0);
    opacity: 1;
  }
  62.4% {
    animation-timing-function: cubic-bezier(0.4497,0.1349,0.4911,1);
    transform: matrix(1.044,0,0,1.044,0,0);
    opacity: 1;
  }
  74.1% {
    animation-timing-function: cubic-bezier(0.429,0,0.5239,1);
    transform: matrix(0.914,0,0,0.914,0,0);
    opacity: 1;
  }
  87% {
    animation-timing-function: cubic-bezier(0.3501,0,0.6422,1);
    transform: matrix(1.013,0,0,1.013,0,0);
    opacity: 1;
  }
  95.8% {
    animation-timing-function: cubic-bezier(0.3653,0,0.6776,1);
    transform: matrix(0.992,0,0,0.992,0,0);
    opacity: 1;
  }
  100% {
    transform: matrix(1,0,0,1,0,0);
    opacity: 1;
  }
}</style></svg>